<!-- Generator: Adobe Illustrator 19.0.0, SVG Export Plug-In  -->
<svg version="1.1"
	 xmlns="http://www.w3.org/2000/svg" xmlns:xlink="http://www.w3.org/1999/xlink" xmlns:a="http://ns.adobe.com/AdobeSVGViewerExtensions/3.0/"
	 x="0px" y="0px" width="48.3px" height="65.5px" viewBox="0 0 48.3 65.5" style="enable-background:new 0 0 48.3 65.5;"
	 xml:space="preserve">
<style type="text/css">
	.st0{fill:none;stroke:#1A1A1A;stroke-width:2;stroke-miterlimit:10;}
	.st1{fill:none;stroke:#4DCBBF;stroke-width:2;stroke-miterlimit:10;}
</style>
<defs>
</defs>
<g>
	<path class="st0" d="M19,33.1V9.2c0-2.6-1.3-4.4-4.7-4.4S9.5,6.5,9.5,9.2v35.4"/>
	<path class="st0" d="M36.2,36.9v-8.6c0-3.6-0.9-6-4.1-6.3c-2.7-0.3-4.1,0.8-4.1,0.8"/>
	<path class="st0" d="M36.2,26.9c4.8-0.8,6.3,1.8,6.5,6c0.3,4.2,0.4,6.4,0.4,11.7c0,12.7-7,20-7,20"/>
	<path class="st0" d="M9.1,29.8c-0.5-0.2-2-0.3-3-0.3c-2.4,0-4.2,1.9-4.5,5.2c0,0-0.5,3.5-0.5,8.1c-0.1,5.9,1,8.6,3.3,12
		c3.2,4.7,10,10,10,10"/>
	<path class="st0" d="M28.4,34v-8c0-3.6-1-6.9-4.7-6.9c-3.2,0-4.7,0.8-4.7,0.8"/>
	<g>
		<line class="st1" x1="30.2" y1="4.4" x2="48.3" y2="4.4"/>
		<polyline class="st1" points="33,8.1 29.3,4.4 33,0.7 		"/>
	</g>
</g>
</svg>