<?xml version="1.0" standalone="no"?><!DOCTYPE svg PUBLIC "-//W3C//DTD SVG 1.1//EN" "http://www.w3.org/Graphics/SVG/1.1/DTD/svg11.dtd"><svg t="1506652973132" class="icon" style="" viewBox="0 0 1024 1024" version="1.1" xmlns="http://www.w3.org/2000/svg" p-id="3054" xmlns:xlink="http://www.w3.org/1999/xlink" width="48" height="48"><defs><style type="text/css"></style></defs><path d="M635.156864 1023.999038H368.600926a7.542355 7.542355 0 1 1 0-15.082805h266.554985c4.164683 0 7.541402 3.375766 7.541403 7.541402s-3.374813 7.541402-7.54045 7.541403zM608.797686 101.984237c-8.568519 0-16.318585-5.878768-18.345188-14.582586L575.485935 23.133468c-2.361988-10.140637 3.943634-20.276511 14.086177-22.638499 10.139685-2.360083 20.276511 3.946493 22.638499 14.08713l14.967516 64.269136c2.361988 10.140637-3.943634 20.276511-14.086177 22.638499a19.008336 19.008336 0 0 1-4.294264 0.49355zM818.646853 267.724537c-1.237686 0-2.493474-0.122911-3.752122-0.378261l-64.68265-13.062872c-10.207333-2.060904-16.809276-12.00717-14.74742-22.212598 2.061857-10.208286 12.008123-16.806418 22.212598-14.748372l64.682651 13.062871c10.207333 2.060904 16.809276 12.00717 14.747419 22.212598-1.808412 8.948686-9.67186 15.126633-18.460476 15.126634zM715.543544 138.106744c-5.429047 0-10.818077-2.333404-14.545426-6.845859-6.632432-8.028282-5.500507-19.911589 2.526822-26.543069l55.466228-45.824857c8.028282-6.631479 19.910636-5.50146 26.543069 2.526823s5.500507 19.911589-2.526823 26.543068l-55.46718 45.824857a18.779664 18.779664 0 0 1-11.997643 4.319037zM897.668172 970.961494H452.99603l311.689064-112.975257c19.311326-6.99926 34.739996-21.099729 43.446671-39.703125 8.70477-18.603396 9.645182-39.484934 2.645923-58.795307l-20.203146-55.737775c-2.484899-6.854434-10.057744-10.395987-16.904556-7.910136-6.854434 2.483946-10.395035 10.05298-7.910135 16.905509l20.203145 55.737776c4.595348 12.682705 3.97984 26.395385-1.738858 38.614076-5.716793 12.217739-15.849808 21.47799-28.532512 26.074291L404.923521 960.310156c-12.68461 4.595348-26.395385 3.978888-38.614076-1.738858s-21.47799-15.849808-26.074292-28.532512L146.425401 395.330971c-9.488923-26.180052 4.089412-55.199444 30.269465-64.68932l350.767153-127.139563c12.681752-4.597254 26.393479-3.97984 38.614076 1.737905 12.217739 5.716793 21.47799 15.849808 26.069527 28.519173l79.167097 219.182783c2.475371 6.85634 10.037735 10.405515 16.895981 7.929192 6.854434-2.476324 10.405515-10.040594 7.928239-16.895981L616.96603 224.779037c-6.99926-19.311326-21.099729-34.739043-39.703125-43.445718s-39.485887-9.645182-58.794354-2.646875L167.700445 305.826007c-39.863195 14.449193-60.539881 58.635237-46.090688 98.499385l193.809752 534.706862c9.425085 26.00569 31.505244 43.830649 56.782996 49.082476a9.278354 9.278354 0 0 0 5.069842 1.504469h6.60766a77.338677 77.338677 0 0 0 3.909333 0.112431c1.305334 0 2.612574-0.044782 3.92172-0.112431h505.956159c5.153689 0 9.329806-4.17707 9.329806-9.329805s-4.176117-9.329806-9.329806-9.329806z" fill="#D9D7D8" p-id="3055"></path><path d="M806.10421 406.300544l-20.503277-11.124879c-8.185494-4.440995-19.909683 1.338682-26.187675 12.908518L588.796534 722.554466c-0.759381 1.399661-1.150028 2.943195-1.103341 4.362866l1.119539 34.789542a5.646286 5.646286 0 0 0-1.58641 0.341102l-53.000385 19.755329a5.659625 5.659625 0 1 0 1.977058 10.958139c0.655526 0 1.323438-0.116241 1.973246-0.357299l51.011893-19.014053 0.01334 0.408751c0.123864 3.835015 3.279533 5.546242 6.560972 3.560609l40.123309-24.290652c1.215771-0.735561 2.297198-1.904645 3.057532-3.304306l170.616724-314.469331c6.277991-11.571741 4.730646-24.550766-3.454849-28.992714zM424.695048 822.630733l-38.894199 14.497786a5.652955 5.652955 0 0 0-3.324315 7.274619 5.659625 5.659625 0 0 0 5.301373 3.68352c0.655526 0 1.323438-0.116241 1.973246-0.3573l38.894199-14.497786a5.652955 5.652955 0 0 0 3.324315-7.274618 5.652002 5.652002 0 0 0-7.274619-3.324315zM505.961161 792.338402l-52.999432 19.755329a5.659625 5.659625 0 1 0 1.977058 10.958139c0.655526 0 1.323438-0.116241 1.973246-0.357299l52.999432-19.75533a5.652955 5.652955 0 0 0 3.324315-7.274619 5.652002 5.652002 0 0 0-7.274619-3.324315zM349.963229 704.911491a5.659625 5.659625 0 0 1-5.301373-3.682567 5.655814 5.655814 0 0 1 3.323363-7.275571l33.257441-12.396865a5.655814 5.655814 0 1 1 3.951256 10.598933l-33.257441 12.396865a5.631041 5.631041 0 0 1-1.973246 0.3573z m61.525075-22.932913a5.656766 5.656766 0 0 1-5.301372-3.68352 5.654861 5.654861 0 0 1 3.323362-7.274619l52.999432-19.756283a5.652955 5.652955 0 0 1 7.275571 3.323362 5.655814 5.655814 0 0 1-3.323362 7.275572l-52.999432 19.756282a5.645333 5.645333 0 0 1-1.975152 0.3573z m81.266114-30.291379a5.657719 5.657719 0 0 1-1.977058-10.958139l52.999432-19.756282a5.652002 5.652002 0 0 1 7.274619 3.324314 5.654861 5.654861 0 0 1-3.323362 7.274619L494.728617 651.327994a5.645333 5.645333 0 0 1-1.975152 0.357299z m81.264207-30.292332a5.656766 5.656766 0 0 1-5.301372-3.68352 5.654861 5.654861 0 0 1 3.324315-7.274618l52.999432-19.75533c2.927951-1.09286 6.184617 0.397317 7.274618 3.324315s-0.397317 6.18557-3.324315 7.274618l-52.999432 19.75533a5.631041 5.631041 0 0 1-1.973246 0.3573z" fill="#D9D7D8" p-id="3056"></path></svg>